<?xml version="1.0" ?><!DOCTYPE svg  PUBLIC '-//W3C//DTD SVG 1.1//EN'  'http://www.w3.org/Graphics/SVG/1.1/DTD/svg11.dtd'><svg enable-background="new 0 0 128 128" height="128px" id="Layer_1" version="1.1" viewBox="0 0 128 128" width="128px" xml:space="preserve" xmlns="http://www.w3.org/2000/svg" xmlns:xlink="http://www.w3.org/1999/xlink"><g><g><path d="M80.969,9.07C79.367,8.352,77.711,8,76.008,8c-4.688,0-8.977,2.75-10.922,7.008L25.07,103.031    c-2.734,6.031-0.063,13.156,5.953,15.891c1.602,0.719,3.266,1.078,4.969,1.078c4.688,0,8.977-2.758,10.922-7.031l40.008-88.008    C89.656,18.93,86.984,11.805,80.969,9.07z M79.641,21.648l-40.008,88.008c-0.672,1.477-2.125,2.344-3.641,2.344    c-0.555,0-1.117-0.117-1.656-0.359c-2.008-0.914-2.898-3.281-1.984-5.297l40.008-88.008C73.031,16.859,74.484,16,76.008,16    c0.555,0,1.109,0.109,1.648,0.352C79.664,17.266,80.555,19.633,79.641,21.648z" fill="#F44336"/></g></g><path d="M120,48h-8v-8c0-4.422-3.578-8-8-8H92.516l-3.641,8H104v48H67.055l-3.641,8H104c4.422,0,8-3.578,8-8v-8h8  c4.422,0,8-3.578,8-8V56C128,51.578,124.422,48,120,48z M120,72h-8V56h8V72z" fill="#B0BEC5"/><path d="M23.109,88H8V40h36.938l3.633-8H8c-4.422,0-8,3.578-8,8v48c0,4.422,3.578,8,8,8h11.477L23.109,88z" fill="#B0BEC5"/></svg>