<?xml version="1.0" ?><!DOCTYPE svg  PUBLIC '-//W3C//DTD SVG 1.1//EN'  'http://www.w3.org/Graphics/SVG/1.1/DTD/svg11.dtd'><svg enable-background="new 0 0 128 128" height="128px" id="Layer_1" version="1.1" viewBox="0 0 128 128" width="128px" xml:space="preserve" xmlns="http://www.w3.org/2000/svg" xmlns:xlink="http://www.w3.org/1999/xlink"><g><g><path d="M8,88h8v-8H8V88z M16,72v8h8v-8H16z M24,88h8v-8h-8V88z M24,64v8h8v-8H24z M8,64v8h8v-8H8z M24,56h-8v8h8    V56z M8,48v8h8v-8H8z M32,56v-8h-8v8H32z M32,72v8h8v-8H32z M32,64h8v-8h-8V64z M40,40h-8v8h8V40z M24,40h-8v8h8V40z M40,88h8v-8    h-8V88z M56,80v-8h-8v8H56z M40,72h8v-8h-8V72z M56,64v-8h-8v8H56z M40,48v8h8v-8H40z M56,40h-8v8h8V40z" fill="#FFE082"/></g></g><path d="M120,48h-8v-8c0-4.422-3.578-8-8-8H8c-4.422,0-8,3.578-8,8v48c0,4.422,3.578,8,8,8h96c4.422,0,8-3.578,8-8  v-8h8c4.422,0,8-3.578,8-8V56C128,51.578,124.422,48,120,48z M104,88H8V40h96V88z M120,72h-8V56h8V72z" fill="#FFA000"/></svg>